# xmcd
#
# Track frame offsets:
#	150
#	17479
#	30798
#	49738
#	64695
#	81487
#	96120
#	113385
#	133385
#	149345
#	164389
#	180079
#	191593
#	208660
#	222463
#	237906
#	254574
#	272332
#	290102
#	306648
#
# Disc length: 4315 seconds
#
# Revision: 3
# Processed by: cddbd v1.5.2PL0 Copyright (c) Steve Scherf et al.
# Submitted via: EasyCDDAExtractor 11.5.0.1
#
DISCID=2510d914
DTITLE=Various Artist - NCT 054
DYEAR=2003
DGENRE=Country
TTITLE0=Shania Twain - She's Not Just A Pretty Face
TTITLE1=Joe Nichols - Cool To Be A Fool
TTITLE2=Vince Gill - Young Man's Town
TTITLE3=Trace Adkins - Hot Mama
TTITLE4=Kellie Coffey - Texas Plates
TTITLE5=Kevin Denney - A Year At A Time
TTITLE6=James Otto - Days Of Our Lives
TTITLE7=Rodney Crowell - Earthbound
TTITLE8=The Mavericks - I Wanna Know
TTITLE9=Lorrie Morgan - Do You Still Want To Buy Me That Drink (Frank)
TTITLE10=Kenny Rogers - Handprints On The Wall
TTITLE11=Merle Haggard - That's The News
TTITLE12=Chris Knight - The Border
TTITLE13=Reckless Kelly - Nobody's Girl
TTITLE14=The Kerosene Brothers - Doreen
TTITLE15=Chalee Tennison - Parading In The Rain
TTITLE16=Sammy Kershaw - Beer, Bait And Amo
TTITLE17=Robert Earl Keen - Furnace Fan
TTITLE18=Jimmy Fortune - What Money Can't Buy
TTITLE19=Billy Bob Thornton - The Desperate One
EXTD=
EXTT0=
EXTT1=
EXTT2=
EXTT3=
EXTT4=
EXTT5=
EXTT6=
EXTT7=
EXTT8=
EXTT9=
EXTT10=
EXTT11=
EXTT12=
EXTT13=
EXTT14=
EXTT15=
EXTT16=
EXTT17=
EXTT18=
EXTT19=
PLAYORDER=
